<svg width="171" height="162" viewBox="0 0 171 162" fill="none" xmlns="http://www.w3.org/2000/svg">
<path d="M47.8945 42.7924V54.4633L48.8571 56.5472L83.2098 70.3019H87.0268L119.853 58.0755L123.67 54.2547V43.5566L87.7902 55.783H83.2098L47.8945 42.7924Z" fill="#060B3F"/>
<path d="M143.518 58.0755C139.937 63.5546 137.804 64.2364 133.594 58.0755V29.8019L87.0268 45.0849H84.7366L32.0625 26.7453C29.8971 23.4622 29.7971 21.6222 32.0625 18.3396L83.9732 0H87.0268L141.228 17.5755L143.518 21.3962V58.0755Z" fill="#060B3F"/>
<path fill-rule="evenodd" clip-rule="evenodd" d="M50.3839 151.302V141.368H3.05357L0 138.311V25.4606C1.08261 23.882 1.84375 23.2576 3.81696 22.9245H19.8482C21.5839 31.668 25.2133 35.3987 37.4062 39.7358V54.4633C39.6352 61.7305 42.0321 64.4152 48.0938 67.2453L81.683 80.2358H88.5536L125.196 66.4811H125.96L126.723 67.2453L136.647 73.3585H141.228C148.235 70.7009 151.238 67.8462 154.205 59.6038V22.1604H167.946L171 25.217V138.311C170.012 139.849 169.279 140.581 167.183 141.368H120.616V152.066H137.411C141.653 155.428 141.933 157.582 137.411 162H33.7103C28.9988 157.818 29.2107 155.484 33.7103 151.302H50.3839ZM50.3839 100.104V122.264L45.8036 126.085H23.6652L19.0848 122.264V100.104L22.9018 95.5189H45.8036L50.3839 100.104ZM29.7723 116.151V106.217H39.6964V116.151H29.7723ZM64.125 106.217C59.2468 102.344 59.3875 99.9814 64.125 95.5189L147.054 95.7654C152.502 100.407 151.365 102.578 147.054 106.217H64.125ZM64.125 116.151C59.0932 120.132 59.3147 122.299 64.125 126.085H147.054C151.857 122.293 152.132 120.136 147.054 116.151H64.125Z" fill="#060B3F"/>
</svg>
