<svg width="677" height="677" viewBox="0 0 677 677" fill="none" xmlns="http://www.w3.org/2000/svg">
<g clip-path="url(#clip0_9776_2032)">
<circle cx="338.203" cy="338.203" r="338.203" fill="white"/>
<path d="M151.79 563L88.6719 452.796L219.997 225.245L261.737 297.694L172.15 453.816L235.268 563H151.79Z" fill="#030A3E"/>
<path d="M588.672 418.103L524.536 528.307H261.922L305.756 453H483.922L547.951 345.654L588.672 418.103Z" fill="#030A3E"/>
<path d="M241.319 113H368.572L498.879 340.551H416.419L325.815 185.449H199.579L241.319 113Z" fill="#030A3E"/>
<path d="M306.422 225.245H219.997L286.112 340.551L219.94 454.837L261.922 528.307L327.851 415.041H451.922L498.879 340.551L369.59 340.551L306.422 225.245Z" fill="#00B3FE"/>
</g>
<defs>
<clipPath id="clip0_9776_2032">
<rect width="676.406" height="676.406" fill="white"/>
</clipPath>
</defs>
</svg>
