<svg width="700" height="700" viewBox="0 0 700 700" fill="none" xmlns="http://www.w3.org/2000/svg">
<g clip-path="url(#clip0_2931_1418)">
<rect width="700" height="700" fill="white"/>
<path d="M350.004 137C421.801 137 480.004 195.203 480.004 267C480.004 338.797 421.801 397 350.004 397C278.207 397 220.004 338.797 220.004 267C220.004 195.203 278.207 137 350.004 137Z" fill="#60CAFF" stroke="#001A27" stroke-width="16"/>
<path d="M474.004 254C474.004 258.741 475.046 266.226 471.004 269.5C469.018 271.108 399.15 277.974 396.504 279C392.927 280.386 357.004 299 359.504 295C362.004 291 366.504 269 363.004 263C359.504 257 340.004 256.5 340.004 245C340.004 233.5 373.005 234 377.504 231.5C382.002 229 378.004 221 384.004 212.5C390.004 204 416.004 218.5 416.004 200.5C416.004 182.5 387.004 190 381.504 184C376.004 178 372.004 172.5 363.004 161.5C354.004 150.5 339.506 144 330.507 143.5C321.508 143 359.435 141 362.004 141C365.103 141 397.609 145.509 421.004 163.5C441.623 179.357 460.492 208.381 462.504 209.5C468.584 212.881 474.004 248.013 474.004 254Z" fill="#00089F"/>
<path d="M274.002 226.5C274.002 233.5 270.504 245 263.503 246.5C256.503 248 230.547 253.961 225.502 250.5C220.711 247.212 235.001 229.15 235.001 223.5C235.001 211.902 259.502 175.5 269.502 169C279.502 162.5 320.002 146.5 327.002 145.5C329.749 145.108 315.502 153 320.002 158.5C322.603 161.678 343.502 155 343.502 173.5C343.502 192 312.002 186 302.002 190C292.002 194 295.502 202 294.502 210C293.502 218 274.002 219.5 274.002 226.5Z" fill="white"/>
<path d="M350.004 137C421.801 137 480.004 195.203 480.004 267C480.004 338.797 421.801 397 350.004 397C278.207 397 220.004 338.797 220.004 267C220.004 195.203 278.207 137 350.004 137Z" stroke="#001A27" stroke-width="16"/>
<path d="M207.504 286.5L349.504 307.5L502.004 287.5L503.004 429H205.004L207.504 286.5Z" fill="white"/>
<path d="M191.043 435.505L192.05 314.689H171.918V468.415C199.583 463.576 227.345 460.496 255.302 460.364C281.117 460.254 306.931 462.696 332.81 468.635C316.737 459.814 298.813 453.324 279.688 449.1C255.595 443.777 229.553 442.017 202.862 443.557C196.823 443.887 191.562 440.851 191.043 436.781C190.978 436.341 190.978 435.923 191.043 435.505ZM486.461 308.375C486.396 308.023 486.332 307.649 486.332 307.253C486.332 306.879 486.364 306.505 486.461 306.131V281.669C461.134 280.041 435.028 281.933 412.233 287.785C390.933 293.262 372.554 302.26 360.605 315.151V454.49C379.178 446.087 398.174 439.179 417.688 434.471C439.931 429.104 462.79 426.552 486.461 427.828V308.375ZM508.379 299.84H538.057C544.097 299.84 549 303.162 549 307.253V478.095C549 482.186 544.097 485.508 538.057 485.508C536.823 485.508 535.622 485.376 534.518 485.112C503.996 479.195 473.668 475.257 443.633 475.125C414.344 474.993 385.088 478.491 355.702 487.268C353.884 488.082 349.468 488.5 349.468 488.5C347.26 488.522 345.084 488.082 343.233 487.268C313.88 478.469 284.591 474.993 255.302 475.125C225.267 475.257 194.972 479.195 164.417 485.112C163.313 485.376 162.112 485.508 160.878 485.508C154.903 485.53 150 482.208 150 478.117V307.253C150 303.162 154.903 299.84 160.943 299.84H192.147L192.342 275.069C192.374 271.506 196.076 268.558 201.044 267.854C229.845 263.784 264.849 264.796 295.534 272.76C316.737 278.259 335.921 284.101 349.98 296.772C364.17 284.959 383.205 279.403 404.538 273.925C433.697 266.424 467.336 264.62 498.995 267.766C504.45 268.294 508.347 271.484 508.347 275.091V299.84H508.379ZM371.223 467.513C395.414 462.366 419.572 460.254 443.73 460.342C471.687 460.452 499.45 463.554 527.115 468.393V314.689H508.379V436.165C508.379 440.257 503.476 443.579 497.437 443.579C496.56 443.579 495.716 443.513 494.904 443.381C470.94 440.829 447.724 442.941 425.059 448.419C406.811 452.84 388.887 459.44 371.223 467.513ZM338.72 453.06V314.931C327.258 301.226 308.717 292.052 287.773 286.619C264.037 280.459 237.379 279.073 214.13 281.317L213.513 354.803L212.896 428.29C238.255 427.674 263.063 429.852 286.409 435.021C304.983 439.113 322.582 445.119 338.72 453.06Z" fill="white"/>
<path d="M191.051 449.983L192.057 329.167H171.926V482.893C199.591 478.054 227.353 474.974 255.31 474.842C281.125 474.732 306.939 477.174 332.818 483.113C316.745 474.292 298.821 467.802 279.696 463.578C255.603 458.255 229.561 456.495 202.87 458.035C196.831 458.365 191.57 455.329 191.051 451.259C190.986 450.819 190.986 450.401 191.051 449.983ZM486.469 322.853C486.404 322.501 486.339 322.127 486.339 321.731C486.339 321.357 486.372 320.983 486.469 320.609V296.147C461.142 294.519 435.036 296.411 412.241 302.263C390.94 307.74 372.562 316.738 360.613 329.629V468.968C379.186 460.565 398.181 453.657 417.696 448.949C439.939 443.582 462.798 441.03 486.469 442.306V322.853ZM508.387 314.318H538.065C544.105 314.318 549.008 317.64 549.008 321.731V492.573C549.008 496.664 544.105 499.986 538.065 499.986C536.831 499.986 535.63 499.854 534.526 499.59C504.003 493.673 473.676 489.735 443.64 489.603C414.352 489.471 385.096 492.969 355.71 501.746C353.891 502.56 351.716 503 349.475 502.978C347.267 503 345.092 502.56 343.241 501.746C313.887 492.947 284.599 489.471 255.31 489.603C225.275 489.735 194.98 493.673 164.425 499.59C163.321 499.854 162.119 499.986 160.885 499.986C154.911 500.008 150.008 496.686 150.008 492.595V321.731C150.008 317.64 154.911 314.318 160.95 314.318H192.155L192.35 289.547C192.382 285.984 196.084 283.036 201.052 282.332C229.853 278.262 264.857 279.274 295.542 287.238C316.745 292.737 336 301.515 350.06 314.186C364.25 302.373 383.212 293.881 404.546 288.403C433.704 280.902 467.344 279.098 499.003 282.244C504.458 282.772 508.354 285.962 508.354 289.569V314.318H508.387ZM371.231 481.991C395.421 476.844 419.58 474.732 443.738 474.82C471.695 474.93 499.458 478.032 527.123 482.871V329.167H508.387V450.643C508.387 454.735 503.484 458.057 497.444 458.057C496.568 458.057 495.723 457.991 494.912 457.859C470.948 455.307 447.732 457.419 425.067 462.897C406.819 467.318 388.895 473.918 371.231 481.991ZM338.728 467.538V329.409C327.265 315.704 308.725 306.53 287.781 301.097C264.045 294.937 237.386 293.551 214.137 295.795L212.904 442.768C238.263 442.152 263.071 444.33 286.417 449.499C304.99 453.591 322.59 459.597 338.728 467.538Z" fill="#001A27"/>
<rect x="151" y="590" width="397" height="15" fill="#001A27"/>
<path d="M129 564H151V605H133C130.791 605 129 603.209 129 601V564Z" fill="#001A27"/>
<rect x="150.164" y="490.614" width="17" height="76.3927" transform="rotate(16.0813 150.164 490.614)" fill="#001A27"/>
<rect width="17" height="76.3927" transform="matrix(-0.960869 0.277002 0.277002 0.960869 548.832 491)" fill="#001A27"/>
<path d="M548.008 564H570.008V601C570.008 603.209 568.217 605 566.008 605H548.008V564Z" fill="#001A27"/>
<rect x="321.008" y="542" width="53" height="15" rx="3" fill="#001A27"/>
<path d="M391.195 570.21L373.43 543.266C373.126 542.805 372.506 542.677 372.044 542.981L361.01 550.257L379.326 578.036L391.195 570.21Z" fill="#001A27"/>
<path d="M304.008 569.779L321.773 542.835C322.077 542.374 322.698 542.246 323.159 542.55L334.193 549.826L315.877 577.605L304.008 569.779Z" fill="#001A27"/>
<rect x="379.008" y="564" width="169" height="15" fill="#001A27"/>
<rect x="151.012" y="564" width="165" height="15" fill="#001A27"/>
<rect x="314.008" y="580.506" width="13.7826" height="1" transform="rotate(-56.6 314.008 580.506)" fill="white"/>
<rect width="13.7826" height="1" rx="0.5" transform="matrix(-0.550481 -0.834848 -0.834848 0.550481 380.43 579.506)" fill="white"/>
<path d="M350.443 34.2168C330.129 34.4945 309.719 54.4505 309.719 74.0066C309.719 101.007 346.638 125.121 348.204 126.114C350.19 127.381 352.168 126.552 352.884 126.064C354.432 125.003 390.847 99.7616 391.289 73.8046C390.674 53.7308 370.878 34.4945 350.447 34.2168H350.443ZM362.336 85.2597C358.38 89.2155 354.487 91.1513 350.481 91.1513C350.161 91.1513 349.841 91.1387 349.517 91.1135C345.826 90.8315 342.38 88.9714 338.668 85.2555C330.815 77.4069 330.815 69.4405 338.668 61.5878C346.525 53.735 354.483 53.7393 362.34 61.5878C370.188 69.4448 370.188 77.4069 362.34 85.2555L362.336 85.2597Z" fill="#001A27"/>
<ellipse cx="470.22" cy="126.5" rx="6.95455" ry="22.5" fill="#001A27"/>
<ellipse cx="470.474" cy="126.895" rx="24.4737" ry="7.10526" fill="#001A27"/>
<ellipse cx="228.22" cy="126.5" rx="6.95455" ry="22.5" fill="#001A27"/>
<ellipse cx="228.474" cy="126.895" rx="24.4737" ry="7.10526" fill="#001A27"/>
<ellipse cx="180.866" cy="186.952" rx="3.69413" ry="11.9516" fill="#001A27"/>
<ellipse cx="181" cy="187.161" rx="13" ry="3.77419" fill="#001A27"/>
<ellipse cx="524.866" cy="186.952" rx="3.69413" ry="11.9516" fill="#001A27"/>
<ellipse cx="525" cy="187.161" rx="13" ry="3.77419" fill="#001A27"/>
<path d="M170.712 656.56C166.979 656.56 163.712 655.869 160.912 654.488C158.149 653.107 156.003 651.221 154.472 648.832C152.941 646.405 152.176 643.68 152.176 640.656C152.176 637.557 152.923 634.813 154.416 632.424C155.947 630.035 158.019 628.168 160.632 626.824C163.283 625.48 166.251 624.808 169.536 624.808C172.56 624.808 175.341 625.405 177.88 626.6C180.456 627.795 182.509 629.568 184.04 631.92C185.608 634.272 186.392 637.184 186.392 640.656C186.392 641.104 186.373 641.608 186.336 642.168C186.299 642.691 186.261 643.176 186.224 643.624H162.648V637.52H179.504L174.744 639.144C174.744 637.949 174.52 636.941 174.072 636.12C173.661 635.261 173.083 634.608 172.336 634.16C171.589 633.675 170.693 633.432 169.648 633.432C168.603 633.432 167.688 633.675 166.904 634.16C166.157 634.608 165.579 635.261 165.168 636.12C164.757 636.941 164.552 637.949 164.552 639.144V641.048C164.552 642.355 164.813 643.475 165.336 644.408C165.859 645.341 166.605 646.051 167.576 646.536C168.547 646.984 169.723 647.208 171.104 647.208C172.523 647.208 173.68 647.021 174.576 646.648C175.509 646.275 176.48 645.715 177.488 644.968L184.096 651.632C182.603 653.237 180.755 654.469 178.552 655.328C176.387 656.149 173.773 656.56 170.712 656.56ZM186.262 656L200.71 637.072L200.374 644.352L186.598 625.368H200.878L207.654 635.504L202.39 635.896L209.838 625.368H223.11L209.278 643.736V636.736L223.39 656H208.886L201.886 645.192L207.206 645.92L199.982 656H186.262ZM246.099 656.56C243.449 656.56 241.246 656 239.491 654.88C237.774 653.723 236.505 651.987 235.683 649.672C234.862 647.32 234.451 644.333 234.451 640.712C234.451 637.016 234.825 634.011 235.571 631.696C236.355 629.344 237.606 627.608 239.323 626.488C241.041 625.368 243.299 624.808 246.099 624.808C248.787 624.808 251.251 625.461 253.491 626.768C255.731 628.037 257.523 629.867 258.867 632.256C260.211 634.608 260.883 637.427 260.883 640.712C260.883 643.997 260.211 646.835 258.867 649.224C257.523 651.576 255.731 653.387 253.491 654.656C251.251 655.925 248.787 656.56 246.099 656.56ZM225.659 666.864V625.368H237.699V629.512L237.755 640.712L238.315 651.912V666.864H225.659ZM243.075 646.704C244.009 646.704 244.849 646.48 245.595 646.032C246.342 645.584 246.939 644.912 247.387 644.016C247.835 643.12 248.059 642.019 248.059 640.712C248.059 639.368 247.835 638.248 247.387 637.352C246.939 636.456 246.342 635.784 245.595 635.336C244.849 634.888 244.009 634.664 243.075 634.664C242.142 634.664 241.302 634.888 240.555 635.336C239.809 635.784 239.211 636.456 238.763 637.352C238.315 638.248 238.091 639.368 238.091 640.712C238.091 642.019 238.315 643.12 238.763 644.016C239.211 644.912 239.809 645.584 240.555 646.032C241.302 646.48 242.142 646.704 243.075 646.704ZM264.87 656V614.448H277.526V656H264.87ZM299.32 656.56C295.848 656.56 292.768 655.888 290.08 654.544C287.429 653.163 285.339 651.277 283.808 648.888C282.277 646.499 281.512 643.755 281.512 640.656C281.512 637.557 282.277 634.813 283.808 632.424C285.339 630.035 287.429 628.168 290.08 626.824C292.768 625.48 295.848 624.808 299.32 624.808C302.792 624.808 305.872 625.48 308.56 626.824C311.248 628.168 313.339 630.035 314.832 632.424C316.363 634.813 317.128 637.557 317.128 640.656C317.128 643.755 316.363 646.499 314.832 648.888C313.339 651.277 311.248 653.163 308.56 654.544C305.872 655.888 302.792 656.56 299.32 656.56ZM299.32 646.704C300.253 646.704 301.093 646.48 301.84 646.032C302.587 645.584 303.184 644.912 303.632 644.016C304.08 643.083 304.304 641.963 304.304 640.656C304.304 639.312 304.08 638.211 303.632 637.352C303.184 636.456 302.587 635.784 301.84 635.336C301.093 634.888 300.253 634.664 299.32 634.664C298.387 634.664 297.547 634.888 296.8 635.336C296.053 635.784 295.456 636.456 295.008 637.352C294.56 638.211 294.336 639.312 294.336 640.656C294.336 641.963 294.56 643.083 295.008 644.016C295.456 644.912 296.053 645.584 296.8 646.032C297.547 646.48 298.387 646.704 299.32 646.704ZM321.089 656V625.368H333.129V634.608L331.169 631.976C332.102 629.587 333.596 627.795 335.649 626.6C337.702 625.405 340.166 624.808 343.041 624.808V636.008C342.481 635.933 341.977 635.877 341.529 635.84C341.118 635.803 340.689 635.784 340.241 635.784C338.337 635.784 336.769 636.288 335.537 637.296C334.342 638.267 333.745 639.965 333.745 642.392V656H321.089ZM363.469 656V650.568L362.573 649.112V638.808C362.573 637.315 362.106 636.176 361.173 635.392C360.277 634.608 358.802 634.216 356.749 634.216C355.367 634.216 353.967 634.44 352.549 634.888C351.13 635.299 349.917 635.877 348.909 636.624L344.877 628.28C346.669 627.16 348.815 626.301 351.317 625.704C353.818 625.107 356.263 624.808 358.653 624.808C363.917 624.808 367.986 625.984 370.861 628.336C373.773 630.688 375.229 634.421 375.229 639.536V656H363.469ZM354.789 656.56C352.287 656.56 350.197 656.131 348.517 655.272C346.837 654.413 345.567 653.275 344.709 651.856C343.85 650.4 343.421 648.795 343.421 647.04C343.421 645.061 343.925 643.381 344.933 642C345.941 640.619 347.471 639.573 349.525 638.864C351.615 638.155 354.247 637.8 357.421 637.8H363.805V643.904H359.437C358.093 643.904 357.103 644.128 356.469 644.576C355.871 644.987 355.573 645.621 355.573 646.48C355.573 647.189 355.834 647.787 356.357 648.272C356.917 648.72 357.663 648.944 358.597 648.944C359.455 648.944 360.239 648.72 360.949 648.272C361.695 647.787 362.237 647.04 362.573 646.032L364.197 649.784C363.711 652.061 362.685 653.76 361.117 654.88C359.549 656 357.439 656.56 354.789 656.56ZM397.709 656.56C394.2 656.56 391.083 655.888 388.357 654.544C385.632 653.2 383.485 651.333 381.917 648.944C380.387 646.517 379.621 643.755 379.621 640.656C379.621 637.557 380.387 634.813 381.917 632.424C383.485 630.035 385.632 628.168 388.357 626.824C391.083 625.48 394.2 624.808 397.709 624.808C401.443 624.808 404.635 625.611 407.285 627.216C409.936 628.821 411.765 631.043 412.773 633.88L402.973 638.696C402.339 637.277 401.555 636.251 400.621 635.616C399.725 634.981 398.736 634.664 397.653 634.664C396.72 634.664 395.843 634.888 395.021 635.336C394.237 635.784 393.603 636.456 393.117 637.352C392.669 638.211 392.445 639.312 392.445 640.656C392.445 642 392.669 643.12 393.117 644.016C393.603 644.912 394.237 645.584 395.021 646.032C395.843 646.48 396.72 646.704 397.653 646.704C398.736 646.704 399.725 646.387 400.621 645.752C401.555 645.117 402.339 644.091 402.973 642.672L412.773 647.488C411.765 650.325 409.936 652.547 407.285 654.152C404.635 655.757 401.443 656.56 397.709 656.56ZM431.609 656.56C428.137 656.56 425.057 655.888 422.369 654.544C419.718 653.163 417.628 651.277 416.097 648.888C414.566 646.499 413.801 643.755 413.801 640.656C413.801 637.557 414.566 634.813 416.097 632.424C417.628 630.035 419.718 628.168 422.369 626.824C425.057 625.48 428.137 624.808 431.609 624.808C435.081 624.808 438.161 625.48 440.849 626.824C443.537 628.168 445.628 630.035 447.121 632.424C448.652 634.813 449.417 637.557 449.417 640.656C449.417 643.755 448.652 646.499 447.121 648.888C445.628 651.277 443.537 653.163 440.849 654.544C438.161 655.888 435.081 656.56 431.609 656.56ZM431.609 646.704C432.542 646.704 433.382 646.48 434.129 646.032C434.876 645.584 435.473 644.912 435.921 644.016C436.369 643.083 436.593 641.963 436.593 640.656C436.593 639.312 436.369 638.211 435.921 637.352C435.473 636.456 434.876 635.784 434.129 635.336C433.382 634.888 432.542 634.664 431.609 634.664C430.676 634.664 429.836 634.888 429.089 635.336C428.342 635.784 427.745 636.456 427.297 637.352C426.849 638.211 426.625 639.312 426.625 640.656C426.625 641.963 426.849 643.083 427.297 644.016C427.745 644.912 428.342 645.584 429.089 646.032C429.836 646.48 430.676 646.704 431.609 646.704ZM493.922 624.808C496.237 624.808 498.309 625.293 500.138 626.264C502.005 627.197 503.461 628.672 504.506 630.688C505.589 632.704 506.13 635.317 506.13 638.528V656H493.474V640.712C493.474 638.808 493.157 637.464 492.522 636.68C491.887 635.859 491.066 635.448 490.058 635.448C489.311 635.448 488.639 635.635 488.042 636.008C487.445 636.381 486.959 636.979 486.586 637.8C486.25 638.584 486.082 639.667 486.082 641.048V656H473.426V640.712C473.426 638.808 473.127 637.464 472.53 636.68C471.933 635.859 471.093 635.448 470.01 635.448C469.263 635.448 468.591 635.635 467.994 636.008C467.397 636.381 466.911 636.979 466.538 637.8C466.202 638.584 466.034 639.667 466.034 641.048V656H453.378V625.368H465.418V634.16L462.954 631.696C464.111 629.381 465.661 627.664 467.602 626.544C469.543 625.387 471.709 624.808 474.098 624.808C476.786 624.808 479.157 625.517 481.21 626.936C483.301 628.317 484.701 630.52 485.41 633.544L481.546 632.928C482.666 630.389 484.29 628.411 486.418 626.992C488.583 625.536 491.085 624.808 493.922 624.808ZM532.06 656.56C529.41 656.56 527.207 656 525.452 654.88C523.735 653.723 522.466 651.987 521.644 649.672C520.823 647.32 520.412 644.333 520.412 640.712C520.412 637.016 520.786 634.011 521.532 631.696C522.316 629.344 523.567 627.608 525.284 626.488C527.002 625.368 529.26 624.808 532.06 624.808C534.748 624.808 537.212 625.461 539.452 626.768C541.692 628.037 543.484 629.867 544.828 632.256C546.172 634.608 546.844 637.427 546.844 640.712C546.844 643.997 546.172 646.835 544.828 649.224C543.484 651.576 541.692 653.387 539.452 654.656C537.212 655.925 534.748 656.56 532.06 656.56ZM511.62 666.864V625.368H523.66V629.512L523.716 640.712L524.276 651.912V666.864H511.62ZM529.036 646.704C529.97 646.704 530.81 646.48 531.556 646.032C532.303 645.584 532.9 644.912 533.348 644.016C533.796 643.12 534.02 642.019 534.02 640.712C534.02 639.368 533.796 638.248 533.348 637.352C532.9 636.456 532.303 635.784 531.556 635.336C530.81 634.888 529.97 634.664 529.036 634.664C528.103 634.664 527.263 634.888 526.516 635.336C525.77 635.784 525.172 636.456 524.724 637.352C524.276 638.248 524.052 639.368 524.052 640.712C524.052 642.019 524.276 643.12 524.724 644.016C525.172 644.912 525.77 645.584 526.516 646.032C527.263 646.48 528.103 646.704 529.036 646.704Z" fill="#001A27"/>
</g>
<defs>
<clipPath id="clip0_2931_1418">
<rect width="700" height="700" fill="white"/>
</clipPath>
</defs>
</svg>
