<svg width="2898" height="2634" viewBox="0 0 2898 2634" fill="none" xmlns="http://www.w3.org/2000/svg">
<g clip-path="url(#clip0_11777_3610)">
<rect width="2634" height="2898" transform="matrix(0 -1 1 0 0 2634)" fill="#030A3E"/>
<path d="M717.814 1651.99V1616.37H653V1782.61H717.814V1651.99Z" fill="#016BE5"/>
<path d="M717.814 1651.99V1782.61H803.904V1651.99H717.814Z" fill="#016BE5"/>
<path d="M803.904 1651.99V1782.61H911.763V1651.99H803.904Z" fill="#016BE5"/>
<path d="M911.763 1651.99V1782.61H954.808V1651.99H911.763Z" fill="#016BE5"/>
<path d="M1020.12 1651.99V1782.61H1106.21V1651.99H1020.12Z" fill="#016BE5"/>
<path d="M954.808 1651.99V1782.61H1020.12V1651.99H954.808Z" fill="#016BE5"/>
<path d="M1153.21 1782.61V1651.99H1106.21V1782.61H1153.21Z" fill="#016BE5"/>
<path d="M1153.21 1890.97H1024.57V1977.8H1153.21V1890.97Z" fill="#016BE5"/>
<path d="M1024.57 2064.63H1153.21V1977.8H1024.57V2064.63Z" fill="#016BE5"/>
<path d="M1024.57 2171H1153.21V2064.63H1024.57V2171Z" fill="#016BE5"/>
<path d="M1024.57 2278.86H1153.21V2171H1024.57V2278.86Z" fill="#016BE5"/>
<path d="M1024.57 2364.95H1153.21V2278.86H1024.57V2364.95Z" fill="#016BE5"/>
<path d="M1024.57 2430.26H1153.21V2364.95H1024.57V2430.26Z" fill="#016BE5"/>
<path d="M1024.57 2495.08H1153.21V2430.26H1024.57V2495.08Z" fill="#016BE5"/>
<path d="M1190.81 2538.12H1153.21H1024.57V2601.95H1190.81V2538.12Z" fill="#016BE5"/>
<path d="M1024.57 2538.12H1153.21V2495.08H1024.57V2538.12Z" fill="#016BE5"/>
<path d="M1190.81 1136.45H1319.45V1092.91H1190.81V1136.45Z" fill="#016BE5"/>
<path d="M1319.45 1049.37H1190.81V1092.91H1319.45V1049.37Z" fill="#016BE5"/>
<path d="M1190.81 1179.49H1319.45V1136.45H1190.81V1179.49Z" fill="#016BE5"/>
<path d="M1190.81 1222.04H1319.45V1179.49H1190.81V1222.04Z" fill="#016BE5"/>
<path d="M1190.81 1372.94H1319.45V1265.58H1190.81V1372.94Z" fill="#016BE5"/>
<path d="M1190.81 1265.58H1319.45V1222.04H1190.81V1265.58Z" fill="#016BE5"/>
<path d="M1190.81 1416.48H1319.45V1372.94H1190.81V1416.48Z" fill="#016BE5"/>
<path d="M1190.81 1459.03H1319.45V1416.48H1190.81V1459.03Z" fill="#016BE5"/>
<path d="M1190.81 1502.08H1319.45V1459.03H1190.81V1502.08Z" fill="#016BE5"/>
<path d="M1190.81 1546.61H1319.45V1502.08H1190.81V1546.61Z" fill="#016BE5"/>
<path d="M1190.81 1588.66H1319.45V1546.61H1190.81V1588.66Z" fill="#016BE5"/>
<path d="M1153.21 985.542V845.523H1040.9V985.542H1153.21Z" fill="#016BE5"/>
<path d="M1040.9 985.542V845.523H991.421V985.542H1040.9Z" fill="#016BE5"/>
<path d="M760.364 845.523V985.542H991.421V845.523H760.364Z" fill="#016BE5"/>
<path d="M760.364 1022.65V985.542V845.523H653V1022.65H760.364Z" fill="#016BE5"/>
<path d="M1153.21 103.868H1190.81V38.5586H1003.29V144.933H1153.21V103.868Z" fill="#016BE5"/>
<path d="M1003.29 255.266H1153.21V144.933H1003.29V255.266Z" fill="#016BE5"/>
<path d="M1003.29 362.136H1153.21V255.266H1003.29V362.136Z" fill="#016BE5"/>
<path d="M1003.29 469.501H1153.21V362.136H1003.29V469.501Z" fill="#016BE5"/>
<path d="M1003.29 575.875H1153.21V469.501H1003.29V575.875Z" fill="#016BE5"/>
<path d="M1190.81 619.91V748.549H1307.08V619.91H1190.81Z" fill="#016BE5"/>
<path d="M1392.68 748.549V619.91H1307.08V748.549H1392.68Z" fill="#016BE5"/>
<path d="M1434.73 748.549V619.91H1392.68V748.549H1434.73Z" fill="#016BE5"/>
<path d="M1477.28 748.549V619.91H1434.73V748.549H1477.28Z" fill="#016BE5"/>
<path d="M1563.87 748.549V619.91H1477.28V748.549H1563.87Z" fill="#016BE5"/>
<path d="M1649.46 748.549V619.91H1563.87V748.549H1649.46Z" fill="#016BE5"/>
<path d="M1822.13 748.549V619.91H1649.46V748.549H1822.13Z" fill="#016BE5"/>
<path d="M1943.35 748.549V619.91H1822.13V748.549H1943.35Z" fill="#016BE5"/>
<path d="M2037.36 748.549V619.91H1943.35V748.549H2037.36Z" fill="#016BE5"/>
<path d="M2231.31 748.549V619.91H2037.36V748.549H2231.31Z" fill="#016BE5"/>
<path d="M2231.31 845.523V986.037H2344.61V845.523H2231.31Z" fill="#016BE5"/>
<path d="M2344.61 845.523V986.037H2494.03V845.523H2344.61Z" fill="#016BE5"/>
<path d="M2494.03 986.037H2625.64V845.523H2494.03V986.037Z" fill="#016BE5"/>
<path d="M2625.64 986.037V1022.65H2733V845.523H2625.64V986.037Z" fill="#016BE5"/>
<path d="M2194.2 1050.85H2065.06V1092.91H2194.2V1050.85Z" fill="#016BE5"/>
<path d="M2065.06 1134.96H2194.2V1092.91H2065.06V1134.96Z" fill="#016BE5"/>
<path d="M2065.06 1178.5H2194.2V1134.96H2065.06V1178.5Z" fill="#016BE5"/>
<path d="M2065.06 1265.09H2194.2V1222.54H2065.06V1265.09Z" fill="#016BE5"/>
<path d="M2065.06 1222.54H2194.2V1178.5H2065.06V1222.54Z" fill="#016BE5"/>
<path d="M2065.06 1310.11H2194.2V1265.09H2065.06V1310.11Z" fill="#016BE5"/>
<path d="M2065.06 1373.93H2194.2V1310.11H2065.06V1373.93Z" fill="#016BE5"/>
<path d="M2065.06 1414.51H2194.2V1373.93H2065.06V1414.51Z" fill="#016BE5"/>
<path d="M2065.06 1459.53H2194.2V1414.51H2065.06V1459.53Z" fill="#016BE5"/>
<path d="M2065.06 1545.12H2194.2V1502.57H2065.06V1545.12Z" fill="#016BE5"/>
<path d="M2065.06 1502.57H2194.2V1459.53H2065.06V1502.57Z" fill="#016BE5"/>
<path d="M2065.06 1588.17H2194.2V1545.12H2065.06V1588.17Z" fill="#016BE5"/>
<path d="M2231.31 1653.48V1783.11H2280.78V1653.48H2231.31Z" fill="#016BE5"/>
<path d="M2367.86 1783.11V1653.48H2322.84V1783.11H2367.86Z" fill="#016BE5"/>
<path d="M2322.84 1783.11V1653.48H2280.78V1783.11H2322.84Z" fill="#016BE5"/>
<path d="M2430.7 1783.11V1653.48H2367.86V1783.11H2430.7Z" fill="#016BE5"/>
<path d="M2473.25 1783.11V1653.48H2430.7V1783.11H2473.25Z" fill="#016BE5"/>
<path d="M2515.8 1783.11V1653.48H2473.25V1783.11H2515.8Z" fill="#016BE5"/>
<path d="M2560.82 1783.11V1653.48H2515.8V1783.11H2560.82Z" fill="#016BE5"/>
<path d="M2601.39 1783.11V1653.48H2560.82V1783.11H2601.39Z" fill="#016BE5"/>
<path d="M2645.92 1783.11V1653.48H2601.39V1783.11H2645.92Z" fill="#016BE5"/>
<path d="M2688.97 1783.11V1653.48H2645.92V1783.11H2688.97Z" fill="#016BE5"/>
<path d="M2733 1783.11V1653.48H2688.97V1783.11H2733Z" fill="#016BE5"/>
<path d="M2231.31 2017.13V1890.97H2101.68V2017.13H2231.31Z" fill="#016BE5"/>
<path d="M2101.68 2017.13V1890.97H2058.63V2017.13H2101.68Z" fill="#016BE5"/>
<path d="M2015.09 2017.13V1890.97H1973.04V2017.13H2015.09Z" fill="#016BE5"/>
<path d="M2058.63 2017.13V1890.97H2015.09V2017.13H2058.63Z" fill="#016BE5"/>
<path d="M1973.04 2017.13V1890.97H1928.01V2017.13H1973.04Z" fill="#016BE5"/>
<path d="M1928.01 2017.13V1890.97H1886.95V2017.13H1928.01Z" fill="#016BE5"/>
<path d="M1886.95 2017.13V1890.97H1843.41V2017.13H1886.95Z" fill="#016BE5"/>
<path d="M1799.87 1890.97V2017.13H1843.41V1890.97H1799.87Z" fill="#016BE5"/>
<path d="M1584.65 2017.13V1890.97H1541.85V2017.13H1584.65Z" fill="#016BE5"/>
<path d="M1499.05 1890.97V2017.13H1541.85V1890.97H1499.05Z" fill="#016BE5"/>
<path d="M1370.41 1890.97V2017.13H1413.46V1890.97H1370.41Z" fill="#016BE5"/>
<path d="M1413.46 1890.97V2017.13H1456.01H1499.05V1890.97H1413.46Z" fill="#016BE5"/>
<path d="M1325.39 1890.97V2017.13H1370.41V1890.97H1325.39Z" fill="#016BE5"/>
<path d="M1190.81 1890.97V1954.05H1261.07V2017.13H1325.39V1890.97H1190.81Z" fill="#016BE5"/>
<path d="M1190.81 1954.05V2017.13H1261.07V1954.05H1190.81Z" fill="#016BE5"/>
<path d="M1190.81 2538.12H1241.77M1190.81 2538.12H1153.21M1190.81 2538.12V2601.95H1024.57V2538.12M1241.77 2538.12V2495.08M1241.77 2538.12C1241.77 2538.12 1241.77 2522.78 1241.77 2552.96C1241.77 2583.14 1295.7 2581.66 1295.7 2552.96C1295.7 2524.27 1295.7 2504.97 1295.7 2476.27C1295.7 2447.58 1241.77 2448.57 1241.77 2476.27C1241.77 2503.98 1241.77 2495.08 1241.77 2495.08M1241.77 2495.08H1190.81V2421.36H1217.53M1217.53 2421.36V2350.6M1217.53 2421.36C1217.53 2421.36 1241.28 2421.36 1286.3 2421.36C1331.33 2421.36 1336.77 2350.6 1286.3 2350.6C1235.84 2350.6 1217.53 2350.6 1217.53 2350.6M1217.53 2350.6H1190.81V2017.13M2231.31 1890.97V2017.13H2101.68M2231.31 1890.97H2101.68M2231.31 1890.97V1783.11M2733 1653.48V1616.37H2231.31V1557.49H2259.01M2733 1653.48V1783.11H2688.97M2733 1653.48H2688.97M2283.26 1414.51H2231.31V1487.24H2259.01M2283.26 1414.51C2283.26 1414.51 2283.26 1405.1 2283.26 1432.81C2283.26 1460.52 2334.71 1460.02 2334.71 1432.81C2334.71 1405.6 2334.71 1383.83 2334.71 1354.14C2334.71 1324.46 2283.26 1324.46 2283.26 1354.14C2283.26 1383.83 2283.26 1373.93 2283.26 1373.93M2283.26 1414.51V1373.93M2283.26 1373.93H2231.31V1022.65H2302.06V1094.84C2310.67 1078.61 2318.06 1073.77 2334.71 1072.62M2334.71 1072.62V1022.65H2625.64M2334.71 1072.62C2334.71 1072.62 2528.66 1072.62 2570.72 1072.62C2612.77 1072.62 2615.25 1142.88 2570.72 1142.88C2526.19 1142.88 2385.18 1142.88 2334.71 1142.88C2284.25 1142.88 2290.68 1072.62 2334.71 1072.62ZM2625.64 1022.65V986.037M2625.64 1022.65H2733V845.523H2625.64M2625.64 986.037H2494.03M2625.64 986.037V845.523M2231.31 748.549V619.91H2037.36M2231.31 748.549H2037.36M2231.31 748.549V845.523M1219.01 288.416H1190.81V619.91M1219.01 288.416V218.654M1219.01 288.416C1219.01 288.416 1244.25 288.416 1287.79 288.416C1331.33 288.416 1334.79 218.654 1287.79 218.654C1240.78 218.654 1219.01 218.654 1219.01 218.654M1219.01 218.654H1190.81V144.933H1241.28M1241.28 144.933V103.868M1241.28 144.933C1241.28 198.863 1296.2 199.358 1296.2 144.933C1296.2 90.5091 1296.2 161.261 1296.2 103.868C1296.2 46.4749 1241.28 51.9173 1241.28 103.868M1241.28 103.868H1190.81M760.364 985.542V1022.65M760.364 985.542V845.523M760.364 985.542H991.421M760.364 1022.65H1153.21V1150.3H1103.73M760.364 1022.65H653V845.523H760.364M1103.73 1150.3V1191.86M1103.73 1150.3C1103.73 1150.3 1103.73 1161.68 1103.73 1132.49C1103.73 1103.3 1049.8 1103.79 1049.8 1132.49C1049.8 1161.18 1049.8 1181.47 1049.8 1211.65C1049.8 1241.83 1103.73 1238.86 1103.73 1211.65C1103.73 1184.44 1103.73 1191.86 1103.73 1191.86M1103.73 1191.86H1153.21V1265.58H1125.5M1125.5 1265.58V1336.33M1125.5 1265.58C1125.5 1265.58 1112.14 1265.58 1058.71 1265.58C1005.27 1265.58 1009.73 1336.33 1058.71 1336.33C1107.69 1336.33 1125.5 1336.33 1125.5 1336.33M1125.5 1336.33H1153.21V1616.37H1082.95V1540.59C1077.38 1558.43 1070.31 1564.38 1050.79 1568.38M1050.79 1568.38V1616.37H717.814M1050.79 1568.38C1050.79 1568.38 856.844 1568.38 813.304 1568.38C769.765 1568.38 766.302 1496.14 813.304 1496.14C860.307 1496.14 1004.28 1496.14 1050.79 1496.14C1097.3 1496.14 1092.85 1568.38 1050.79 1568.38ZM717.814 1616.37V1651.99M717.814 1616.37H653V1782.61H717.814M717.814 1651.99V1782.61M717.814 1651.99H803.904M1153.21 2538.12H1024.57M1153.21 2538.12V2495.08M2259.01 1557.49V1487.24M2259.01 1557.49C2259.01 1557.49 2283.26 1557.49 2328.28 1557.49C2373.3 1557.49 2371.33 1487.24 2328.28 1487.24C2285.24 1487.24 2259.01 1487.24 2259.01 1487.24M1477.28 1804.38V1853.36H1190.81V1588.66M1477.28 1804.38H1516.86M1477.28 1804.38C1477.28 1804.38 1490.15 1804.38 1459.47 1804.38C1428.79 1804.38 1424.84 1749.46 1459.47 1749.46C1494.1 1749.46 1512.9 1749.46 1538.63 1749.46C1564.36 1749.46 1565.35 1804.38 1538.63 1804.38C1511.92 1804.38 1516.86 1804.38 1516.86 1804.38M1516.86 1804.38V1853.36H1591.57V1825.66M1591.57 1825.66H1660.84M1591.57 1825.66C1591.57 1825.66 1591.57 1804.38 1591.57 1756.88C1591.57 1709.39 1660.84 1708.4 1660.84 1756.88C1660.84 1805.37 1660.84 1825.66 1660.84 1825.66M1660.84 1825.66V1853.36H2194.2V1588.17M2106.63 834.144V785.657H2194.2V1050.85M2106.63 834.144H2065.56M2106.63 834.144C2106.63 834.144 2105.64 834.144 2129.38 834.144C2153.13 834.144 2150.66 888.568 2129.38 888.568C2108.11 888.568 2071.99 888.568 2042.8 888.568C2013.61 888.568 2016.58 834.144 2042.8 834.144C2069.02 834.144 2065.56 834.144 2065.56 834.144M2065.56 834.144V785.657H1991.34V813.363M1991.34 813.363C1991.34 813.363 1991.34 817.201 1991.34 824.248C1991.34 827.052 1991.34 830.364 1991.34 834.144C1991.34 837.563 1991.34 841.366 1991.34 845.523C1991.34 848.775 1991.34 852.243 1991.34 855.913C1991.34 859.665 1991.34 863.628 1991.34 867.788C1991.34 872.641 1991.34 877.761 1991.34 883.126C1991.34 925.676 1921.09 927.655 1921.09 883.126C1921.09 877.726 1921.09 872.61 1921.09 867.788C1921.09 863.606 1921.09 859.646 1921.09 855.913C1921.09 852.225 1921.09 848.759 1921.09 845.523C1921.09 841.342 1921.09 837.544 1921.09 834.144C1921.09 830.341 1921.09 827.036 1921.09 824.248C1921.09 817.105 1921.09 813.363 1921.09 813.363M1991.34 813.363H1921.09M1921.09 813.363V785.657H1190.81V1049.37M1190.81 619.91V748.549H1307.08M1190.81 619.91H1307.08M2037.36 619.91V748.549M2037.36 619.91H1943.35M2037.36 748.549H1943.35M1943.35 619.91V748.549M1943.35 619.91H1822.13M1943.35 748.549H1822.13M1822.13 619.91V748.549M1822.13 619.91H1649.46M1822.13 748.549H1649.46M1649.46 619.91V748.549M1649.46 619.91H1563.87M1649.46 748.549H1563.87M1563.87 619.91V748.549M1563.87 619.91H1477.28M1563.87 748.549H1477.28M1477.28 619.91V748.549M1477.28 619.91H1434.73M1477.28 748.549H1434.73M1434.73 619.91V748.549M1434.73 619.91H1392.68M1434.73 748.549H1392.68M1392.68 619.91V748.549M1392.68 619.91H1307.08M1392.68 748.549H1307.08M1307.08 619.91V748.549M1190.81 103.868H1153.21V144.933M1190.81 103.868V38.5586H1003.29V144.933M1153.21 575.875H1003.29V469.501M1153.21 575.875V469.501M1153.21 575.875V845.523M1153.21 469.501H1003.29M1153.21 469.501V362.136M1003.29 469.501V362.136M1153.21 362.136H1003.29M1153.21 362.136V255.266M1003.29 362.136V255.266M1153.21 255.266H1003.29M1153.21 255.266V144.933M1003.29 255.266V144.933M1153.21 144.933H1003.29M1153.21 845.523V985.542H1040.9M1153.21 845.523H1040.9M760.364 845.523H991.421M1040.9 845.523V985.542M1040.9 845.523H991.421M1040.9 985.542H991.421M991.421 845.523V985.542M1190.81 1049.37H1319.45V1092.91M1190.81 1049.37V1092.91M1190.81 1588.66H1319.45V1546.61M1190.81 1588.66V1546.61M1319.45 1546.61H1190.81M1319.45 1546.61V1502.08M1190.81 1546.61V1502.08M1190.81 1502.08H1319.45M1190.81 1502.08V1459.03M1319.45 1502.08V1459.03M1319.45 1459.03H1190.81M1319.45 1459.03V1416.48M1190.81 1459.03V1416.48M1190.81 1416.48H1319.45M1190.81 1416.48V1372.94M1319.45 1416.48V1372.94M1319.45 1372.94H1190.81M1319.45 1372.94V1265.58M1190.81 1372.94V1265.58M1190.81 1265.58H1319.45M1190.81 1265.58V1222.04M1319.45 1265.58V1222.04M1319.45 1222.04H1190.81M1319.45 1222.04V1179.49M1190.81 1222.04V1179.49M1190.81 1179.49H1319.45M1190.81 1179.49V1136.45M1319.45 1179.49V1136.45M1319.45 1136.45H1190.81M1319.45 1136.45V1092.91M1190.81 1136.45V1092.91M1190.81 1092.91H1319.45M1153.21 1782.61V1651.99H1106.21M1153.21 1782.61H1106.21M1153.21 1782.61V1890.97M717.814 1782.61H803.904M803.904 1651.99V1782.61M803.904 1651.99H911.763M803.904 1782.61H911.763M911.763 1651.99V1782.61M911.763 1651.99H954.808M911.763 1782.61H954.808M954.808 1651.99V1782.61M954.808 1651.99H1020.12M954.808 1782.61H1020.12M1020.12 1651.99V1782.61M1020.12 1651.99H1106.21M1020.12 1782.61H1106.21M1106.21 1651.99V1782.61M1190.81 2017.13V1954.05M1190.81 2017.13H1261.07M1584.65 1890.97V2017.13H1541.85M1584.65 1890.97H1799.87M1584.65 1890.97H1541.85M1799.87 1890.97V2017.13H1843.41M1799.87 1890.97H1843.41M1190.81 1954.05V1890.97H1325.39M1190.81 1954.05H1261.07V2017.13M1261.07 2017.13H1325.39M1325.39 1890.97V2017.13M1325.39 1890.97H1370.41M1325.39 2017.13H1370.41M1370.41 1890.97V2017.13M1370.41 1890.97H1413.46M1370.41 2017.13H1413.46M1413.46 1890.97V2017.13M1413.46 1890.97H1499.05M1413.46 2017.13H1456.01M1456.01 1890.97V2017.13M1456.01 2017.13H1499.05M1499.05 1890.97V2017.13M1499.05 1890.97H1541.85M1499.05 2017.13H1541.85M1541.85 1890.97V2017.13M2101.68 1890.97V2017.13M2101.68 1890.97H2058.63M2101.68 2017.13H2058.63M2058.63 1890.97V2017.13M2058.63 1890.97H2015.09M2058.63 2017.13H2015.09M2015.09 1890.97V2017.13M2015.09 1890.97H1973.04M2015.09 2017.13H1973.04M1973.04 1890.97V2017.13M1973.04 1890.97H1928.01M1973.04 2017.13H1928.01M1928.01 1890.97V2017.13M1928.01 1890.97H1886.95M1928.01 2017.13H1886.95M1886.95 1890.97V2017.13M1886.95 1890.97H1843.41M1886.95 2017.13H1843.41M1843.41 1890.97V2017.13M2231.31 1783.11V1653.48H2280.78M2231.31 1783.11H2280.78M2688.97 1653.48V1783.11M2688.97 1653.48H2645.92M2688.97 1783.11H2645.92M2645.92 1783.11V1653.48M2645.92 1783.11H2601.39M2645.92 1653.48H2601.39M2601.39 1653.48V1783.11M2601.39 1653.48H2560.82M2601.39 1783.11H2560.82M2560.82 1783.11V1653.48M2560.82 1783.11H2515.8M2560.82 1653.48H2515.8M2515.8 1653.48V1783.11M2515.8 1653.48H2473.25M2515.8 1783.11H2473.25M2473.25 1783.11V1653.48M2473.25 1783.11H2430.7M2473.25 1653.48H2430.7M2430.7 1653.48V1783.11M2430.7 1653.48H2367.86M2430.7 1783.11H2367.86M2367.86 1783.11V1653.48M2367.86 1783.11H2322.84M2367.86 1653.48H2322.84M2322.84 1653.48V1783.11M2322.84 1653.48H2280.78M2322.84 1783.11H2280.78M2280.78 1653.48V1783.11M2194.2 1050.85H2065.06V1092.91M2194.2 1050.85V1092.91M2194.2 1588.17H2065.06V1545.12M2194.2 1588.17V1545.12M2194.2 1545.12H2065.06M2194.2 1545.12V1502.57M2065.06 1545.12V1502.57M2065.06 1502.57H2194.2M2065.06 1502.57V1459.53M2194.2 1502.57V1459.53M2194.2 1459.53H2065.06M2194.2 1459.53V1414.51M2065.06 1459.53V1414.51M2065.06 1414.51H2194.2M2065.06 1414.51V1373.93M2194.2 1414.51V1373.93M2194.2 1373.93H2065.06M2194.2 1373.93V1310.11M2065.06 1373.93V1310.11M2065.06 1310.11H2194.2M2065.06 1310.11V1265.09M2194.2 1310.11V1265.09M2194.2 1265.09H2065.06M2194.2 1265.09V1222.54M2065.06 1265.09V1222.54M2065.06 1222.54H2194.2M2065.06 1222.54V1178.5M2194.2 1222.54V1178.5M2194.2 1178.5H2065.06M2194.2 1178.5V1134.96M2065.06 1178.5V1134.96M2065.06 1134.96H2194.2M2065.06 1134.96V1092.91M2194.2 1134.96V1092.91M2194.2 1092.91H2065.06M2231.31 845.523V986.037H2344.61M2231.31 845.523H2344.61M2344.61 845.523V986.037M2344.61 845.523H2494.03M2344.61 986.037H2494.03M2494.03 845.523V986.037M2494.03 845.523H2625.64M1153.21 1890.97H1024.57V1977.8M1153.21 1890.97V1977.8M1024.57 2538.12V2495.08M1024.57 2495.08H1153.21M1024.57 2495.08V2430.26M1153.21 2495.08V2430.26M1153.21 2430.26H1024.57M1153.21 2430.26V2364.95M1024.57 2430.26V2364.95M1024.57 2364.95H1153.21M1024.57 2364.95V2278.86M1153.21 2364.95V2278.86M1153.21 2278.86H1024.57M1153.21 2278.86V2171M1024.57 2278.86V2171M1024.57 2171H1153.21M1024.57 2171V2064.63M1153.21 2171V2064.63M1153.21 2064.63H1024.57M1153.21 2064.63V1977.8M1024.57 2064.63V1977.8M1024.57 1977.8H1153.21M1413.46 2064.63L1591.57 2242.74L1412.96 2421.36L1234.35 2242.74L1413.46 2063.64" stroke="white" stroke-width="4.94767"/>
</g>
<defs>
<clipPath id="clip0_11777_3610">
<rect width="2634" height="2898" fill="white" transform="matrix(0 -1 1 0 0 2634)"/>
</clipPath>
</defs>
</svg>
