<svg width="2898" height="2634" viewBox="0 0 2898 2634" fill="none" xmlns="http://www.w3.org/2000/svg">
<g clip-path="url(#clip0_11718_3576)">
<rect width="2634" height="2898" transform="matrix(0 -1 1 0 0 2634)" fill="#030A3E"/>
<path d="M1045 2600H1154.5V2514.5H1045V2600Z" fill="#016BE5"/>
<path d="M1154.5 2450.5H1045V2514.5H1154.5V2450.5Z" fill="#016BE5"/>
<path d="M1154.5 2382H1045V2450.5H1154.5V2382Z" fill="#016BE5"/>
<path d="M1154.5 2319.5H1045V2382H1154.5V2319.5Z" fill="#016BE5"/>
<path d="M1154.5 2254H1045V2319.5H1154.5V2254Z" fill="#016BE5"/>
<path d="M1154.5 2190H1045V2254H1154.5V2190Z" fill="#016BE5"/>
<path d="M1154.5 2060H1045V2124.5H1154.5V2060Z" fill="#016BE5"/>
<path d="M1154.5 2124.5H1045V2190H1154.5V2124.5Z" fill="#016BE5"/>
<path d="M1154.5 1953.5H1045V2060H1154.5V1953.5Z" fill="#016BE5"/>
<path d="M1154.5 1890.5H1045V1953.5H1154.5V1890.5Z" fill="#016BE5"/>
<path d="M1333.85 2241L1456.5 2364L1579.5 2241L1456.68 2118.18L1333.85 2241Z" fill="#016BE5"/>
<path d="M1283 2190L1333.85 2241L1456.68 2118.18L1405.75 2067.25L1283 2190Z" fill="#016BE5"/>
<path d="M1539 1890.5V1911.5V1997.5H1584.5H1621.5H1632V1890.5H1621.5H1584.5H1539Z" fill="#016BE5"/>
<path d="M1498.5 1911.5V1891H1453V1997.5H1539V1911.5H1498.5Z" fill="#016BE5"/>
<path d="M1689 1997.5V1890.5H1632V1997.5H1689Z" fill="#016BE5"/>
<path d="M1927.5 1891H1797V1997.5H1927.5V1912V1891Z" fill="#016BE5"/>
<path d="M1970 1912H1927.5V1997.5H2056.5V1910.5V1891H1970V1912Z" fill="#016BE5"/>
<path d="M2097.5 1891V1910.5V1997.5H2228.5V1891H2097.5Z" fill="#016BE5"/>
<path d="M2097.5 1910.5H2056.5V1997.5H2097.5V1910.5Z" fill="#016BE5"/>
<path d="M1899.5 1795L1955 1739.5L2053 1641.5L1952 1540.5L1899.5 1488L1899 1488.5L1834 1553.5L1787 1600.5L1823.74 1637.24L1839.5 1653L1854 1638.5L1878.5 1663L1823.74 1717.76L1861.62 1756.38L1899.5 1795Z" fill="#016BE5"/>
<path d="M2228.5 1653.5V1761.5H2405.5V1653.5H2228.5Z" fill="#016BE5"/>
<path d="M2511 1761.5V1653.5H2405.5V1761.5H2511Z" fill="#016BE5"/>
<path d="M2620 1761.5V1653.5H2511V1761.5H2620Z" fill="#016BE5"/>
<path d="M2620 1618V1653.5V1761.5H2726.5V1589H2641V1618H2620Z" fill="#016BE5"/>
<path d="M2641 1589H2726.5V1511H2641V1589Z" fill="#016BE5"/>
<path d="M2641 1456V1511H2726.5V1456H2641Z" fill="#016BE5"/>
<path d="M2641 1340.5V1456H2726.5V1340.5H2641Z" fill="#016BE5"/>
<path d="M2726.5 1225H2641V1340.5H2726.5V1225Z" fill="#016BE5"/>
<path d="M2726.5 1049.5H2641V1225H2726.5V1049.5Z" fill="#016BE5"/>
<path d="M2554.5 1026H2600.5V1049.5H2641H2726.5L2727 847H2554.5V988.5V1026Z" fill="#016BE5"/>
<path d="M2554.5 988.5V847H2466.5V988.5H2554.5Z" fill="#016BE5"/>
<path d="M2466.5 988.5V847H2362.5V988.5H2466.5Z" fill="#016BE5"/>
<path d="M2228.5 847V988.5H2362.5V847H2228.5Z" fill="#016BE5"/>
<path d="M2189.5 1053H2186H2083V1224H2189.5V1053Z" fill="#016BE5"/>
<path d="M2083 1373H2189.5V1224H2083V1373Z" fill="#016BE5"/>
<path d="M2083 1439H2189.5V1373H2083V1439Z" fill="#016BE5"/>
<path d="M2083 1590.5H2189.5V1439H2083V1590.5Z" fill="#016BE5"/>
<path d="M2188.5 751.5V644.5H2034.5V751.5H2188.5Z" fill="#016BE5"/>
<path d="M2034.5 751.5V644.5H1882V751.5H2034.5Z" fill="#016BE5"/>
<path d="M1882 751.5V644.5H1752V751.5H1882Z" fill="#016BE5"/>
<path d="M1752 751.5V644.5H1625.5V751.5H1752Z" fill="#016BE5"/>
<path d="M1625.5 751.5V644.5H1514V751.5H1625.5Z" fill="#016BE5"/>
<path d="M1514 751.5V644.5H1412.5V751.5H1514Z" fill="#016BE5"/>
<path d="M1412.5 751.5V644.5H1301.25V751.5H1412.5Z" fill="#016BE5"/>
<path d="M1190 644.5V751.5H1301.25V644.5H1190Z" fill="#016BE5"/>
<path d="M1514 119.5L1236 396.5L1302.5 463L1355.5 516L1412.5 573L1467.5 518L1507.5 558L1563 502.5L1524 463.5L1691 296.5L1514 119.5Z" fill="#016BE5"/>
<path d="M1002 579H1154.5V257H1002V579Z" fill="#016BE5"/>
<path d="M1154.5 257V43H1002V257H1154.5Z" fill="#016BE5"/>
<path d="M1296 1052.5H1189.77L1189.56 1274H1296V1052.5Z" fill="#016BE5"/>
<path d="M1296 1274H1189.56L1189.51 1324.5H1296V1274Z" fill="#016BE5"/>
<path d="M1296 1324.5H1189.51L1189.42 1420.5H1296V1324.5Z" fill="#016BE5"/>
<path d="M1189.25 1590.5H1296V1420.5H1189.42L1189.25 1590.5Z" fill="#016BE5"/>
<path d="M1154.5 987.5V847H1017.5V987.5H1154.5Z" fill="#016BE5"/>
<path d="M1017.5 987.5V847H889V987.5H1017.5Z" fill="#016BE5"/>
<path d="M781 847V987.5H889V847H781Z" fill="#016BE5"/>
<path d="M781 1024.5V987.5V847H762V811.5H655V1024.5H781Z" fill="#016BE5"/>
<path d="M498.5 924V972H268.5V898.5H280.5V783H268.5V417H650.5V648.5H552V752.5H650.5V790L552 924H498.5Z" fill="#016BE5"/>
<path d="M171 1333.5L432 1580L628.5 1372.5V1340V1305.75V1271.5L419 1074L171 1333.5Z" fill="#016BE5"/>
<path d="M720.5 1656V1616.5H652.5V1761H720.5V1656Z" fill="#016BE5"/>
<path d="M720.5 1656V1761H803.5V1656H720.5Z" fill="#016BE5"/>
<path d="M803.5 1656V1761H866.5H952V1656H866.5H803.5Z" fill="#016BE5"/>
<path d="M952 1656V1761H1060V1656H952Z" fill="#016BE5"/>
<path d="M1154.5 1761V1656H1060V1761H1154.5Z" fill="#016BE5"/>
<path d="M1453 1997.5V1891H1374.5V1997.5H1453Z" fill="#016BE5"/>
<path d="M1323.5 1911.5H1283V1997.5H1323.5H1374.5V1891H1323.5V1911.5Z" fill="#016BE5"/>
<path d="M1283 1890.5H1189V1997.5H1283V1911.5V1890.5Z" fill="#016BE5"/>
<path d="M1797 1997.5V1891H1927.5V1912M1797 1997.5H1927.5M1797 1997.5H1770M1927.5 1912H1970V1891H2056.5V1910.5M1927.5 1912V1997.5M2056.5 1910.5H2097.5M2056.5 1910.5V1997.5M2097.5 1910.5V1891H2228.5M2097.5 1910.5V1997.5M2620 1653.5V1618H2641V1589M2620 1653.5V1761.5M2620 1653.5H2511M2641 1456V1340.5M2641 1456V1511M2641 1456H2726.5M2276 1417.5H2228.5V1524H2252M2276 1417.5V1373M2276 1417.5C2276 1417.5 2276 1405 2276 1436C2276 1467 2328 1463 2328 1436C2328 1409 2328 1384.5 2328 1356.5C2328 1328.5 2276 1327 2276 1356.5C2276 1386 2276 1373 2276 1373M2276 1373H2228.5V1138H2263L2425 1297V1456L2556 1589V1618H2228.5V1558H2252M2565 1145.5H2600.5V1263.5L2511 1353L2228.5 1070.5V1026H2516.5V1049.5H2565V1075.5M2565 1145.5C2565 1145.5 2383.5 1145.5 2331 1145.5C2278.5 1145.5 2282.5 1075.5 2331 1075.5C2379.5 1075.5 2565 1075.5 2565 1075.5M2565 1145.5V1114V1109.5V1075.5M2554.5 988.5V1026H2600.5V1049.5H2641M2554.5 988.5V847M2554.5 988.5H2466.5M1220 291.5L1190 322.5V463H1302.5M1220 291.5V257V222.5M1220 291.5C1220 291.5 1247 291.5 1287.5 291.5C1328 291.5 1327.5 222.5 1287.5 222.5C1247.5 222.5 1220 222.5 1220 222.5M1220 222.5H1190V148H1237M1237 148V108.5M1237 148C1237 148 1237 138.5 1237 168.5C1237 198.5 1290.5 200 1290.5 168.5C1290.5 137 1290.5 128.5 1290.5 92C1290.5 55.5 1237 58.5 1237 92C1237 125.5 1237 108.5 1237 108.5M1237 108.5H1220V43H1190M1154.5 43C1168.36 51.3998 1176.13 51.5471 1190 43M1154.5 43V33.5M1154.5 43V257M1154.5 43H1002V257M781 987.5V1024.5M781 987.5V847M781 987.5H889M781 1024.5H1154.5V1176.5H1099M781 1024.5H655V811.5H762V847H781M1099 1176.5V1218.5M1099 1176.5C1099 1176.5 1099 1194.5 1099 1160.5C1099 1126.5 1045 1129.5 1045 1160.5C1045 1191.5 1044.93 1208.49 1045 1238C1045.07 1267.51 1098.97 1268.03 1099 1238C1099.03 1207.97 1099 1218.5 1099 1218.5M1099 1218.5H1124.5L1154.5 1247V1274L1124.5 1293M1124.5 1293V1324.5V1362M1124.5 1293C1124.5 1293 1096.5 1293 1051.5 1293C1006.5 1293 1007 1362 1051.5 1362C1096 1362 1124.5 1362 1124.5 1362M813 1499V1532.75V1566.5M813 1499C813 1499 999.5 1499 1044.5 1499C1089.5 1499 1091 1566.5 1044.5 1566.5C998 1566.5 813 1566.5 813 1566.5M813 1499C790 1499 781 1506 781 1525C781 1544 781 1616.5 781 1616.5H720.5M720.5 1616.5V1656M720.5 1616.5H652.5V1761H720.5M720.5 1656V1761M720.5 1656H803.5M1154.5 2600H1189V2561.5L1215.5 2529.5H1238M1154.5 2600H1045V2514.5M1154.5 2600V2514.5M1238 2529.5V2490.5M1238 2529.5C1238 2529.5 1238 2514 1238 2548C1238 2582 1291.5 2581.5 1291.5 2548C1291.5 2514.5 1292.5 2503 1291.5 2473C1290.5 2443 1238 2442.5 1238 2473C1238 2503.5 1238 2490.5 1238 2490.5M1238 2490.5H1189V2444.5L1215.5 2418M1215.5 2418V2382V2350M1215.5 2418C1215.5 2418 1251.5 2418 1288 2418C1324.5 2418 1324 2350 1288 2350C1252 2350 1215.5 2350 1215.5 2350M1215.5 2350L1272 2287.5L1403.5 2418L1456.5 2364M1456.5 2364L1333.85 2241M1456.5 2364L1579.5 2241L1456.68 2118.18M1333.85 2241L1283 2190M1333.85 2241L1456.68 2118.18M1283 2190L1189 2089V1997.5M1283 2190L1405.75 2067.25L1456.68 2118.18M1283 1911.5V1890.5H1189V1997.5M1283 1911.5H1323.5V1891H1374.5M1283 1911.5V1997.5M1539 1911.5H1498.5V1891H1453M1539 1911.5V1890.5H1584.5H1621.5M1539 1911.5V1997.5M2189.5 789.5V1053M2103.5 789.5V835.5M2103.5 835.5H2060.5M2103.5 835.5C2103.5 835.5 2086 835.5 2118.5 835.5C2151 835.5 2151 893.5 2118.5 893.5C2090.87 893.5 2078.06 893.5 2054.56 893.5M2060.5 835.5V789.5H1984.5V815.5M2060.5 835.5C2060.5 835.5 2071.5 835.5 2041 835.5C2010.5 835.5 2008 893.5 2041 893.5C2045.94 893.5 2050.42 893.5 2054.56 893.5M1984.5 815.5H1953.25H1916.5M1984.5 815.5C1984.5 815.5 1984.5 840.5 1984.5 884.5C1984.5 928.5 1916.5 929.5 1916.5 884.5C1916.5 839.5 1916.5 815.5 1916.5 815.5M1916.5 815.5V789.5H1701.5V815.5H1696.5V875.102M1190 820L1189.78 1049M1189 1852.5L1189.25 1593M1621.5 1826.5V1852.5H1516.5V1826.5H1512V1803.5M1621.5 1826.5H1657.5M1621.5 1826.5H1585.5C1585.5 1826.5 1585.5 1803.5 1585.5 1756.5C1585.5 1709.5 1657.5 1715 1657.5 1756.5C1657.5 1798 1657.5 1826.5 1657.5 1826.5M1657.5 1826.5H1666.5L1700.5 1800.5V1789L1774 1715.5L1697.5 1641.5V1549.5L1600 1453L1249 1819.5V1852.5H1458.5L1473.5 1826.5V1803.5M1899.5 1795L1878.5 1816V1852.5H2162L2189.5 1825V1590.5M1899.5 1795L1955 1739.5M1899.5 1795L1861.62 1756.38M1878.5 1663L1823.74 1717.76L1861.62 1756.38M1878.5 1663L1854 1638.5M1878.5 1663L1916.75 1701.25M1854 1638.5L1839.5 1653L1823.74 1637.24L1787 1600.5L1834 1553.5M1854 1638.5L1886.5 1606M1836.5 1020.5C1836.5 1014.06 1836.08 1007.72 1835.27 1001.5M1836.5 1020.5H1888.5L1908 1040L1749 1199H1696.5V1165.9M1836.5 1020.5C1836.5 1099.02 1774.31 1163.01 1696.5 1165.9M1545.5 1020.5C1545.5 1095.79 1602.69 1157.73 1676 1165.24M1545.5 1020.5H1477L1458 1038.5L1627 1214.24L1676 1165.24M1545.5 1020.5C1545.5 1013.89 1545.94 1007.38 1546.8 1001M628.5 1340V1372.5L432 1580L171 1333.5L419 1074L628.5 1271.5V1305.75M628.5 1340L980.5 1401.5L1154.5 1572V1616.5H813V1566.5M628.5 1340V1305.75M628.5 1305.75L803.5 1332L900.5 1239V1187.5L805.5 1092.5H628.5L512.5 976.5L541.924 947.076L650.5 1060.5H820.5L945 1187.5V1336.5L1116.5 1506.5H1154.5V1374H1124.5V1362M2228.5 1891V1850V1761.5M2228.5 1891V1997.5H2097.5M2641 1049.5H2726.5M2641 1049.5V1225M1355.5 516L1412.5 573L1467.5 518L1507.5 558L1563 502.5L1524 463.5L1691 296.5L1514 119.5L1236 396.5L1302.5 463M1355.5 516H1321.5L1303.5 497H1190V644.5M1355.5 516L1302.5 463M1899 1488.5L1899.5 1488L1952 1540.5M1899 1488.5L1876 1465.5L1773.06 1567L1731 1524.94V1443L1773.06 1400.94V1203L2054.56 921.5L2186 1053M1899 1488.5L1834 1553.5M1190 43V33.5M1154.5 1890.5H1045V1953.5M1154.5 1890.5V1953.5M1154.5 1890.5V1761M1045 1953.5H1154.5M1045 1953.5V2060M1154.5 1953.5V2060M1045 2060H1154.5M1045 2060V2124.5M1154.5 2060V2124.5M1045 2124.5H1154.5M1045 2124.5V2190M1154.5 2124.5V2190M1045 2190H1154.5M1045 2190V2254M1154.5 2190V2254M1045 2254H1154.5M1045 2254V2319.5M1154.5 2254V2319.5M1045 2319.5H1154.5M1045 2319.5V2382M1154.5 2319.5V2382M1045 2382H1154.5M1045 2382V2450.5M1154.5 2382V2450.5M1045 2450.5H1154.5M1045 2450.5V2514.5M1154.5 2450.5V2514.5M1045 2514.5H1154.5M1154.5 1761V1656H1060M1154.5 1761H1060M720.5 1761H803.5M803.5 1761V1656M803.5 1761H866.5H952M803.5 1656H866.5H952M952 1761V1656M952 1761H1060M952 1656H1060M1060 1656V1761M781 847H889M1154.5 847V987.5H1017.5M1154.5 847H1017.5M1154.5 847V579M1017.5 847V987.5M1017.5 847H889M1017.5 987.5H889M889 987.5V847M1154.5 579H1002V257M1154.5 579V257M1002 257H1154.5M1190 644.5V751.5H1301.25M1190 644.5H1301.25M2188.5 644.5V402.5H2228.5V847M2188.5 644.5V751.5H2034.5M2188.5 644.5H2034.5M2034.5 644.5V751.5M2034.5 644.5H1882M2034.5 751.5H1882M1882 644.5V751.5M1882 644.5H1752M1882 751.5H1752M1752 644.5V751.5M1752 644.5H1625.5M1752 751.5H1625.5M1625.5 644.5V751.5M1625.5 644.5H1514M1625.5 751.5H1514M1514 644.5V751.5M1514 644.5H1412.5M1514 751.5H1412.5M1412.5 644.5V751.5M1412.5 644.5H1301.25M1412.5 751.5H1301.25M1301.25 644.5V751.5M2228.5 847V988.5H2362.5M2228.5 847H2362.5M2726.5 1049.5L2727 847H2554.5M2726.5 1049.5V1225M2554.5 847H2466.5M2466.5 847V988.5M2466.5 847H2362.5M2466.5 988.5H2362.5M2362.5 988.5V847M2228.5 1761.5V1653.5H2405.5M2228.5 1761.5H2405.5M2726.5 1589V1761.5H2620M2726.5 1589H2641M2726.5 1589V1511M2641 1589V1511M2641 1225H2726.5M2641 1225V1340.5M2726.5 1225V1340.5M2641 1340.5H2726.5M2726.5 1340.5V1456M2641 1511H2726.5M2726.5 1511V1456M2620 1761.5H2511M2511 1653.5V1761.5M2511 1653.5H2405.5M2511 1761.5H2405.5M2405.5 1653.5V1761.5M2097.5 1997.5H2056.5M2056.5 1997.5H1927.5M1621.5 1890.5V1891M1621.5 1890.5H1632M1189 1997.5H1283M1689 1997.5V1890.5H1632M1689 1997.5H1632M1689 1997.5H1716M1632 1997.5H1621.5H1584.5H1539M1632 1997.5V1890.5M1770 1997.5V2009M1770 1997.5C1748.03 1981.73 1736.31 1981.8 1716 1997.5M1716 1997.5V2009M1453 1891V1997.5M1453 1891H1374.5M1453 1997.5H1539M1453 1997.5H1374.5M1189.25 1590.5H1296V1420.5M1189.25 1590.5L1189.42 1420.5M1189.25 1590.5L1189.25 1593M1189.77 1052.5H1296V1274M1189.77 1052.5L1189.56 1274M1189.77 1052.5L1189.78 1049M1189.56 1274H1296M1189.56 1274L1189.51 1324.5M1296 1274V1324.5M1189.51 1324.5H1296M1189.51 1324.5L1189.42 1420.5M1296 1324.5V1420.5M1189.42 1420.5H1296M2189.5 1590.5H2083V1439M2189.5 1590.5V1439M2189.5 1053V1224M2189.5 1053H2186M2083 1439H2189.5M2083 1439V1373M2189.5 1439V1373M2189.5 1373H2083M2189.5 1373V1224M2083 1373V1224M2083 1224V1053H2186M2083 1224H2189.5M1283 1997.5H1323.5H1374.5M1374.5 1891V1997.5M1952 1540.5L2053 1641.5L1955 1739.5M1952 1540.5L1886.5 1606M1955 1739.5L1916.75 1701.25M1916.75 1701.25L1861.62 1756.38M1886.5 1606L1834 1553.5M1512 1803.5C1512 1803.5 1495.5 1803.5 1529 1803.5C1562.5 1803.5 1559.5 1750 1529 1750C1498.5 1750 1491.5 1750 1455.5 1750C1419.5 1750 1418 1803.5 1455.5 1803.5C1493 1803.5 1473.5 1803.5 1473.5 1803.5M1512 1803.5H1473.5M2252 1558V1524M2252 1558C2252 1558 2283.5 1558 2324.5 1558C2365.5 1558 2363.5 1489.5 2324.5 1489.5C2285.5 1489.5 2252 1489.5 2252 1489.5V1524M2054.56 893.5L1946.56 1001.5H1835.27M1835.27 1001.5C1826.19 931.899 1767.93 877.757 1696.5 875.102M1696.5 1165.9C1694.68 1165.97 1692.84 1166 1691 1166C1685.94 1166 1680.93 1165.74 1676 1165.24M1546.8 1001H1424L1254.5 824.5V789.5H1653.5L1676 815.5V875.764M1546.8 1001C1555.67 934.748 1609.13 882.612 1676 875.764M1189.78 1049L1317.28 921.5L1580.5 1195V1443L1314.5 1719L1189.25 1593M1676 875.764C1680.93 875.259 1685.94 875 1691 875C1692.84 875 1694.68 875.034 1696.5 875.102M498.5 924V972H268.5V898.5H280.5V783H268.5V417H650.5V648.5H552V752.5H650.5V790L552 924H498.5ZM2600.5 1589H2587L2474 1476V1417.5L2600.5 1291V1589Z" stroke="white" stroke-width="5"/>
</g>
<defs>
<clipPath id="clip0_11718_3576">
<rect width="2634" height="2898" fill="white" transform="matrix(0 -1 1 0 0 2634)"/>
</clipPath>
</defs>
</svg>
